# xmcd
#
# Track frame offsets: 
#        150
#        11093
#        28079
#        45085
#        58470
#        78286
#        103592
#        120181
#        138718
#        164517
#        182229
#        202450
#        226472
#        240502
#        259056
#        282562
#        301475
#
# Disc length: 4439 seconds
#
# Revision: 0
# Processed by: cddbd v1.5.1PL0 Copyright (c) Steve Scherf et al.
# Submitted via: ExactAudioCopy v0.90b4
#
DISCID=f5115511
DTITLE=John Hammond - 5-28-95 Strawberry Music Festival, Yosemite, CA
DYEAR=1995
DGENRE=Blues
TTITLE0=Fine Little Pony
TTITLE1=Found True Love
TTITLE2=Dreamy-Eyed Woman
TTITLE3=Long Long Time
TTITLE4=Spoonful
TTITLE5=All Night Long
TTITLE6=Come On in My Kitchen
TTITLE7=Early in the Morning
TTITLE8=If My Love Don't Change
TTITLE9=Poor John
TTITLE10=Come Back Baby
TTITLE11=It's Your Time
TTITLE12=I'm Just Your Fool
TTITLE13=Kindhearted Woman
TTITLE14=Can't Be Satisfied
TTITLE15=Hard Times
TTITLE16=Had Me Religion
EXTD=
EXTT0=
EXTT1=
EXTT2=
EXTT3=
EXTT4=
EXTT5=
EXTT6=
EXTT7=
EXTT8=
EXTT9=
EXTT10=
EXTT11=
EXTT12=
EXTT13=
EXTT14=
EXTT15=
EXTT16=
PLAYORDER=
